<?xml version="1.0" encoding="UTF-8"?>
<svg width="170px" height="48px" viewBox="0 0 170 48" version="1.1" xmlns="http://www.w3.org/2000/svg" xmlns:xlink="http://www.w3.org/1999/xlink">
    <!-- Generator: Sketch 49.3 (51167) - http://www.bohemiancoding.com/sketch -->
    <title>Group</title>
    <desc>Created with Sketch.</desc>
    <defs></defs>
    <g id="Page-1" stroke="none" stroke-width="1" fill="none" fill-rule="evenodd">
        <g id="Group">
            <path d="M51.2206991,42.74715 C51.2206991,43.38415 50.7091947,43.89415 50.0688112,43.89415 C49.4309351,43.89415 48.9179263,43.38415 48.9179263,42.74715 L48.9179263,35.05065 C48.9179263,34.41415 49.4309351,33.90365 50.0688112,33.90365 C50.7091947,33.90365 51.2206991,34.41415 51.2206991,35.05065 L51.2206991,42.74715 Z M48.7053009,31.41665 C48.7053009,30.43815 49.1967463,30.01415 50.0688112,30.01415 C50.9669528,30.01415 51.4548879,30.43815 51.4548879,31.41665 C51.4548879,32.24615 50.9669528,32.75765 50.0688112,32.75765 C49.1967463,32.75765 48.7053009,32.24615 48.7053009,31.41665 Z" id="Fill-1" fill="#254B87"></path>
            <path d="M61.9662035,37.4742 L61.9662035,42.7892 C61.9662035,43.4267 61.4541976,43.8942 60.8158201,43.8942 C60.1323097,43.8942 59.6644336,43.4267 59.6644336,42.7892 L59.6644336,37.9002 C59.6644336,36.6877 59.1734897,35.8602 57.787413,35.8602 C56.1887109,35.8602 55.6561445,36.7962 55.6561445,38.0497 L55.6561445,42.7892 C55.6561445,43.4267 55.1657021,43.8942 54.5047581,43.8942 C53.8438142,43.8942 53.3533717,43.4267 53.3533717,42.7892 L53.3533717,35.0507 C53.3533717,34.4142 53.8648761,33.9032 54.5047581,33.9032 C55.1441386,33.9032 55.6561445,34.4142 55.6561445,35.0507 C56.0613363,34.4347 56.956469,33.7782 58.3841681,33.7782 C61.2836962,33.7782 61.9662035,35.6262 61.9662035,37.4742" id="Fill-3" fill="#254B87"></path>
            <path d="M70.2182242,36.81695 C70.2182242,36.81695 69.3852743,35.73245 68.1080177,35.73245 C66.6567493,35.73245 65.8253038,36.79595 65.8253038,38.89995 C65.8253038,40.98195 66.6361888,42.04395 68.1080177,42.04395 C69.3436519,42.04395 70.2182242,41.21645 70.2182242,39.74795 L70.2182242,36.81695 Z M70.2182242,34.62645 L70.2182242,29.73745 C70.2182242,29.10045 70.7287257,28.58995 71.3686077,28.58995 C72.0089912,28.58995 72.5194926,29.10045 72.5194926,29.73745 L72.5194926,39.74795 C72.5194926,42.57645 70.6866018,44.00045 68.1080177,44.00045 C65.2290501,44.00045 63.5445959,42.36445 63.5445959,38.89995 C63.5445959,35.43345 65.1859233,33.77845 67.8733274,33.77845 C68.8968378,33.77845 69.7904661,34.20195 70.2182242,34.62645 Z" id="Fill-5" fill="#254B87"></path>
            <path d="M76.4866608,37.7935 L80.7075752,37.7935 C80.7075752,36.752 80.1113215,35.7325 78.7257463,35.7325 C77.4876047,35.7325 76.5929735,36.432 76.4866608,37.7935 M78.7257463,33.7785 C82.3278407,33.7785 82.9892861,36.54 82.9892861,38.005 C82.9892861,38.7925 82.9892861,39.708 81.6879587,39.708 L76.4219705,39.708 C76.4219705,41.238 77.5101711,41.939 78.9173097,41.939 C79.8550678,41.939 80.5170147,41.621 81.0275162,41.2815 C81.261705,41.131 81.4337109,41.0465 81.7095221,41.0465 C82.2641534,41.0465 82.711469,41.4915 82.711469,42.044 C82.711469,42.3845 82.541469,42.6615 82.3484012,42.832 C81.9863363,43.1715 80.8570147,44.0005 78.9173097,44.0005 C75.9535929,44.0005 74.1207021,42.408 74.1207021,38.8575 C74.1207021,35.6045 75.8247139,33.7785 78.7257463,33.7785" id="Fill-7" fill="#254B87"></path>
            <path d="M89.2145457,35.7325 C87.7221563,35.7325 86.9323333,36.796 86.9323333,38.9 C86.9323333,40.982 87.7221563,42.044 89.2145457,42.044 C90.7074366,42.044 91.4957552,40.982 91.4957552,38.9 C91.4957552,36.796 90.7074366,35.7325 89.2145457,35.7325 M89.5139263,33.7785 C92.3066401,33.7785 93.8426578,35.4145 93.8426578,38.878 C93.8426578,42.344 92.2850767,44.0005 89.5139263,44.0005 C88.448292,44.0005 87.509531,43.6615 86.998528,43.086 L86.998528,46.85 C86.998528,47.4875 86.4855192,47.997 85.8456372,47.997 C85.2067581,47.997 84.6962566,47.4875 84.6962566,46.85 L84.6962566,35.051 C84.6962566,34.414 85.2067581,33.9035 85.8456372,33.9035 C86.4855192,33.9035 86.998528,34.414 86.998528,35.051 C87.3179676,34.5215 88.3199145,33.7785 89.5139263,33.7785" id="Fill-9" fill="#254B87"></path>
            <path d="M97.4878791,37.7935 L101.708292,37.7935 C101.708292,36.752 101.111537,35.7325 99.7259617,35.7325 C98.4908289,35.7325 97.5946932,36.432 97.4878791,37.7935 M99.7259617,33.7785 C103.329059,33.7785 103.990504,36.54 103.990504,38.005 C103.990504,38.7925 103.990504,39.708 102.69018,39.708 L97.4236903,39.708 C97.4236903,41.238 98.5103864,41.939 99.9190295,41.939 C100.856286,41.939 101.51723,41.621 102.027732,41.2815 C102.263425,41.131 102.433926,41.0465 102.712245,41.0465 C103.265372,41.0465 103.713189,41.4915 103.713189,42.044 C103.713189,42.3845 103.542186,42.6615 103.350121,42.832 C102.988056,43.1715 101.858735,44.0005 99.9190295,44.0005 C96.9548112,44.0005 95.1214189,42.408 95.1214189,38.8575 C95.1214189,35.6045 96.8269351,33.7785 99.7259617,33.7785" id="Fill-11" fill="#254B87"></path>
            <path d="M114.203593,37.4742 L114.203593,42.7892 C114.203593,43.4267 113.691086,43.8942 113.052206,43.8942 C112.369198,43.8942 111.900319,43.4267 111.900319,42.7892 L111.900319,37.9002 C111.900319,36.6877 111.410378,35.8602 110.024802,35.8602 C108.425097,35.8602 107.892531,36.7962 107.892531,38.0497 L107.892531,42.7892 C107.892531,43.4267 107.401086,43.8942 106.741646,43.8942 C106.080201,43.8942 105.589257,43.4267 105.589257,42.7892 L105.589257,35.0507 C105.589257,34.4142 106.102265,33.9032 106.741646,33.9032 C107.380525,33.9032 107.892531,34.4142 107.892531,35.0507 C108.297723,34.4347 109.193858,33.7782 110.621056,33.7782 C113.521086,33.7782 114.203593,35.6262 114.203593,37.4742" id="Fill-13" fill="#254B87"></path>
            <path d="M122.454912,36.81695 C122.454912,36.81695 121.622463,35.73245 120.343201,35.73245 C118.893938,35.73245 118.063997,36.79595 118.063997,38.89995 C118.063997,40.98195 118.873879,42.04395 120.343201,42.04395 C121.580339,42.04395 122.454912,41.21645 122.454912,39.74795 L122.454912,36.81695 Z M122.454912,34.62645 L122.454912,29.73745 C122.454912,29.10045 122.966416,28.58995 123.605796,28.58995 C124.245177,28.58995 124.756681,29.10045 124.756681,29.73745 L124.756681,39.74795 C124.756681,42.57645 122.924292,44.00045 120.343201,44.00045 C117.465737,44.00045 115.781785,42.36445 115.781785,38.89995 C115.781785,35.43345 117.423112,33.77845 120.109012,33.77845 C121.131519,33.77845 122.027655,34.20195 122.454912,34.62645 Z" id="Fill-15" fill="#254B87"></path>
            <path d="M128.724301,37.7935 L132.945215,37.7935 C132.945215,36.752 132.346956,35.7325 130.960879,35.7325 C129.726248,35.7325 128.828608,36.432 128.724301,37.7935 M130.960879,33.7785 C134.564979,33.7785 135.22492,36.54 135.22492,38.005 C135.22492,38.7925 135.22492,39.708 133.924094,39.708 L128.659611,39.708 C128.659611,41.238 129.746808,41.939 131.153947,41.939 C132.090201,41.939 132.751145,41.621 133.265156,41.2815 C133.498844,41.131 133.669345,41.0465 133.945658,41.0465 C134.501292,41.0465 134.948608,41.4915 134.948608,42.044 C134.948608,42.3845 134.777103,42.6615 134.58554,42.832 C134.222973,43.1715 133.093652,44.0005 131.153947,44.0005 C128.189729,44.0005 126.356336,42.408 126.356336,38.8575 C126.356336,35.6045 128.062354,33.7785 130.960879,33.7785" id="Fill-17" fill="#254B87"></path>
            <path d="M145.437507,37.4742 L145.437507,42.7892 C145.437507,43.4267 144.927006,43.8942 144.286121,43.8942 C143.604617,43.8942 143.134735,43.4267 143.134735,42.7892 L143.134735,37.9002 C143.134735,36.6877 142.645796,35.8602 141.259218,35.8602 C139.661018,35.8602 139.12795,36.7962 139.12795,38.0497 L139.12795,42.7892 C139.12795,43.4267 138.636003,43.8942 137.975059,43.8942 C137.315619,43.8942 136.825177,43.4267 136.825177,42.7892 L136.825177,35.0507 C136.825177,34.4142 137.33618,33.9032 137.975059,33.9032 C138.616445,33.9032 139.12795,34.4142 139.12795,35.0507 C139.53264,34.4347 140.427773,33.7782 141.856475,33.7782 C144.757006,33.7782 145.437507,35.6262 145.437507,37.4742" id="Fill-19" fill="#254B87"></path>
            <path d="M151.643761,33.7784 C153.604027,33.7784 154.734351,34.7539 155.117478,35.2444 C155.287979,35.4764 155.351667,35.6474 155.351667,35.9024 C155.351667,36.4764 154.902847,36.9234 154.328658,36.9234 C153.988156,36.9234 153.731401,36.7724 153.540339,36.5619 C153.263024,36.2639 152.709395,35.7324 151.643761,35.7324 C150.151372,35.7324 149.340487,36.8799 149.340487,38.8779 C149.340487,40.9179 150.151372,42.0439 151.643761,42.0439 C152.623643,42.0439 153.263024,41.5579 153.755472,41.1959 C153.988156,41.0249 154.180221,40.9819 154.394351,40.9819 C154.969041,40.9819 155.416357,41.4299 155.416357,42.0029 C155.416357,42.2999 155.310044,42.5554 155.054794,42.7889 C154.562847,43.2364 153.3909,44.0004 151.643761,44.0004 C148.744233,44.0004 147.01615,42.3439 147.01615,38.8779 C147.01615,35.4144 148.744233,33.7784 151.643761,33.7784" id="Fill-21" fill="#254B87"></path>
            <path d="M159.489587,42.74715 C159.489587,43.38415 158.977581,43.89415 158.337699,43.89415 C157.69882,43.89415 157.185811,43.38415 157.185811,42.74715 L157.185811,35.05065 C157.185811,34.41415 157.69882,33.90365 158.337699,33.90365 C158.977581,33.90365 159.489587,34.41415 159.489587,35.05065 L159.489587,42.74715 Z M156.974189,31.41665 C156.974189,30.43815 157.46413,30.01415 158.337699,30.01415 C159.233835,30.01415 159.723776,30.43815 159.723776,31.41665 C159.723776,32.24615 159.233835,32.75765 158.337699,32.75765 C157.46413,32.75765 156.974189,32.24615 156.974189,31.41665 Z" id="Fill-23" fill="#254B87"></path>
            <path d="M167.376083,40.17485 L167.376083,39.57985 L164.883251,39.57985 C163.945994,39.57985 163.433988,40.02585 163.433988,40.79085 C163.433988,41.59935 164.007174,42.08835 165.20269,42.08835 C166.332513,42.08835 167.376083,41.36585 167.376083,40.17485 M163.305611,36.62385 C163.091481,36.77235 162.923487,36.83835 162.66623,36.83835 C162.112602,36.83835 161.664283,36.39135 161.664283,35.83685 C161.664283,35.60435 161.750035,35.34985 161.940094,35.13785 C162.538855,34.47885 163.604991,33.77835 165.437381,33.77835 C168.081156,33.77835 169.657794,35.07435 169.657794,37.32685 L169.657794,42.76835 C169.657794,43.38435 169.147794,43.89385 168.528472,43.89385 C167.910655,43.89385 167.399652,43.38435 167.399652,42.76835 C166.822454,43.68135 165.886201,44.00035 164.605434,44.00035 C162.517292,44.00035 161.131215,42.70435 161.131215,40.79085 C161.131215,38.81435 162.728413,37.79335 164.585375,37.79335 L167.376083,37.79335 L167.376083,37.41035 C167.376083,36.45485 166.673516,35.81785 165.437381,35.81785 C164.499622,35.81785 163.838177,36.24185 163.305611,36.62385" id="Fill-25" fill="#254B87"></path>
            <path d="M71.1203274,25.482 L69.2197375,22.112 L69.2197375,26.508 C69.2197375,26.883 68.9048112,27.1965 68.5292065,27.1965 C68.1536018,27.1965 67.839177,26.883 67.839177,26.508 L67.839177,19.5645 C67.839177,19.19 68.1536018,18.876 68.5292065,18.876 C68.8325988,18.876 69.0261681,19.045 69.1465221,19.262 L71.7140737,23.8515 L74.2816254,19.262 C74.4019794,19.045 74.5960501,18.876 74.898941,18.876 C75.2750472,18.876 75.588469,19.19 75.588469,19.5645 L75.588469,26.508 C75.588469,26.883 75.2750472,27.1965 74.898941,27.1965 C74.5243392,27.1965 74.2099145,26.883 74.2099145,26.508 L74.2099145,22.112 L72.3068171,25.482 C72.1864631,25.6985 71.9562861,25.8195 71.7140737,25.8195 C71.4713599,25.8195 71.2416844,25.6985 71.1203274,25.482" id="Fill-27" fill="#254B87"></path>
            <path d="M78.1691091,22.1724 L78.1691091,24.9859 C78.1691091,25.5424 78.3636814,26.0739 79.2583127,26.0739 C80.1434159,26.0739 80.3369853,25.5424 80.3369853,24.9859 L80.3369853,22.1724 C80.3369853,21.8119 80.6273392,21.5214 80.9894041,21.5214 C81.3544779,21.5214 81.6448319,21.8119 81.6448319,22.1724 L81.6448319,24.9859 C81.6448319,26.1699 81.1980177,27.2549 79.2583127,27.2549 C77.3090796,27.2549 76.8612625,26.1699 76.8612625,24.9859 L76.8612625,22.1724 C76.8612625,21.8119 77.1516165,21.5214 77.5136814,21.5214 C77.8777522,21.5214 78.1691091,21.8119 78.1691091,22.1724" id="Fill-29" fill="#254B87"></path>
            <path d="M87.687354,23.55085 L87.687354,26.56835 C87.687354,26.92935 87.397,27.19635 87.0334307,27.19635 C86.6442861,27.19635 86.3795074,26.92935 86.3795074,26.56835 L86.3795074,23.79035 C86.3795074,23.10285 86.1006873,22.63085 85.3138732,22.63085 C84.4057021,22.63085 84.1033127,23.16235 84.1033127,23.87435 L84.1033127,26.56835 C84.1033127,26.92935 83.8229882,27.19635 83.447885,27.19635 C83.0732832,27.19635 82.7939617,26.92935 82.7939617,26.56835 L82.7939617,22.17235 C82.7939617,21.81185 83.0858201,21.52135 83.447885,21.52135 C83.8119558,21.52135 84.1033127,21.81185 84.1033127,22.17235 C84.3329882,21.82135 84.8414838,21.44835 85.6523687,21.44835 C87.2997139,21.44835 87.687354,22.49835 87.687354,23.55085" id="Fill-31" fill="#254B87"></path>
            <path d="M90.2064631,26.5445 C90.2064631,26.9065 89.9151062,27.1965 89.5530413,27.1965 C89.1889705,27.1965 88.898115,26.9065 88.898115,26.5445 L88.898115,22.1725 C88.898115,21.812 89.1889705,21.5215 89.5530413,21.5215 C89.9151062,21.5215 90.2064631,21.812 90.2064631,22.1725 L90.2064631,26.5445 Z M88.7777611,20.1075 C88.7777611,19.552 89.0560796,19.311 89.5530413,19.311 C90.0605339,19.311 90.3378496,19.552 90.3378496,20.1075 C90.3378496,20.5785 90.0605339,20.868 89.5530413,20.868 C89.0560796,20.868 88.7777611,20.5785 88.7777611,20.1075 Z" id="Fill-33" fill="#254B87"></path>
            <path d="M93.7905044,21.4483 C94.9052832,21.4483 95.5466696,22.0028 95.7638083,22.2803 C95.8620973,22.4133 95.8977021,22.5098 95.8977021,22.6548 C95.8977021,22.9818 95.6439558,23.2363 95.3169941,23.2363 C95.1229233,23.2363 94.9774956,23.1508 94.869177,23.0293 C94.7112124,22.8608 94.3962861,22.5588 93.7905044,22.5588 C92.9435133,22.5588 92.4841622,23.2128 92.4841622,24.3463 C92.4841622,25.5048 92.9435133,26.1458 93.7905044,26.1458 C94.3476431,26.1458 94.7112124,25.8693 94.989531,25.6623 C95.1229233,25.5653 95.2317434,25.5423 95.3536018,25.5423 C95.6800619,25.5423 95.9333068,25.7943 95.9333068,26.1213 C95.9333068,26.2898 95.8736313,26.4358 95.7272006,26.5683 C95.4508879,26.8223 94.7834248,27.2548 93.7905044,27.2548 C92.1431593,27.2548 91.1637788,26.3138 91.1637788,24.3463 C91.1637788,22.3783 92.1431593,21.4483 93.7905044,21.4483" id="Fill-35" fill="#254B87"></path>
            <path d="M98.2472124,26.5445 C98.2472124,26.9065 97.9568584,27.1965 97.5932891,27.1965 C97.2302212,27.1965 96.9388643,26.9065 96.9388643,26.5445 L96.9388643,22.1725 C96.9388643,21.812 97.2302212,21.5215 97.5932891,21.5215 C97.9568584,21.5215 98.2472124,21.812 98.2472124,22.1725 L98.2472124,26.5445 Z M96.8180088,20.1075 C96.8180088,19.552 97.0973304,19.311 97.5932891,19.311 C98.1012832,19.311 98.3811062,19.552 98.3811062,20.1075 C98.3811062,20.5785 98.1012832,20.868 97.5932891,20.868 C97.0973304,20.868 96.8180088,20.5785 96.8180088,20.1075 Z" id="Fill-37" fill="#254B87"></path>
            <path d="M102.085652,22.55865 C101.238159,22.55865 100.790342,23.16215 100.790342,24.35815 C100.790342,25.54265 101.238159,26.14565 102.085652,26.14565 C102.933145,26.14565 103.381965,25.54265 103.381965,24.35815 C103.381965,23.16215 102.933145,22.55865 102.085652,22.55865 M102.25515,21.44815 C103.841817,21.44815 104.713882,22.37865 104.713882,24.34615 C104.713882,26.31415 103.830283,27.25515 102.25515,27.25515 C101.64987,27.25515 101.117304,27.06315 100.825445,26.73665 L100.825445,28.87365 C100.825445,29.23565 100.536094,29.52565 100.173027,29.52565 C99.8094572,29.52565 99.5191032,29.23565 99.5191032,28.87365 L99.5191032,22.17265 C99.5191032,21.81215 99.8094572,21.52165 100.173027,21.52165 C100.536094,21.52165 100.825445,21.81215 100.825445,22.17265 C101.006979,21.87015 101.578159,21.44815 102.25515,21.44815" id="Fill-39" fill="#254B87"></path>
            <path d="M108.952549,25.0821 L108.952549,24.7446 L107.536383,24.7446 C107.003316,24.7446 106.711959,24.9981 106.711959,25.4326 C106.711959,25.8916 107.038419,26.1701 107.717416,26.1701 C108.359805,26.1701 108.952549,25.7591 108.952549,25.0821 M106.639746,23.0656 C106.518389,23.1511 106.421103,23.1866 106.275676,23.1866 C105.961752,23.1866 105.707003,22.9326 105.707003,22.6191 C105.707003,22.4866 105.755646,22.3426 105.863463,22.2196 C106.202962,21.8476 106.808743,21.4481 107.850808,21.4481 C109.352726,21.4481 110.24836,22.1846 110.24836,23.4656 L110.24836,26.5566 C110.24836,26.9061 109.958006,27.1966 109.605469,27.1966 C109.25544,27.1966 108.964083,26.9061 108.964083,26.5566 C108.638625,27.0746 108.105056,27.2551 107.376914,27.2551 C106.191929,27.2551 105.403611,26.5211 105.403611,25.4326 C105.403611,24.3081 106.311782,23.7306 107.365882,23.7306 L108.952549,23.7306 L108.952549,23.5126 C108.952549,22.9686 108.553375,22.6061 107.850808,22.6061 C107.317239,22.6061 106.942637,22.8506 106.639746,23.0656" id="Fill-41" fill="#254B87"></path>
            <path d="M112.768422,19.15435 L112.768422,25.77185 C112.768422,25.91635 112.912345,25.98635 112.996593,25.98635 C113.336593,25.98635 113.602375,26.25385 113.602375,26.59185 C113.602375,26.92935 113.336593,27.19635 112.996593,27.19635 C112.051313,27.19635 111.459071,26.66485 111.459071,25.64885 L111.459071,19.15435 C111.459071,18.79085 111.749425,18.50185 112.113496,18.50185 C112.476563,18.50185 112.768422,18.79085 112.768422,19.15435" id="Fill-43" fill="#254B87"></path>
            <path d="M115.70872,26.5445 C115.70872,26.9065 115.418366,27.1965 115.054796,27.1965 C114.69223,27.1965 114.401876,26.9065 114.401876,26.5445 L114.401876,22.1725 C114.401876,21.812 114.69223,21.5215 115.054796,21.5215 C115.418366,21.5215 115.70872,21.812 115.70872,22.1725 L115.70872,26.5445 Z M114.280018,20.1075 C114.280018,19.552 114.560844,19.311 115.054796,19.311 C115.564796,19.311 115.843617,19.552 115.843617,20.1075 C115.843617,20.5785 115.564796,20.868 115.054796,20.868 C114.560844,20.868 114.280018,20.5785 114.280018,20.1075 Z" id="Fill-45" fill="#254B87"></path>
            <path d="M120.457336,23.17485 C120.457336,23.17485 119.985448,22.55885 119.25831,22.55885 C118.434386,22.55885 117.962499,23.16235 117.962499,24.35785 C117.962499,25.54235 118.422351,26.14535 119.25831,26.14535 C119.961378,26.14535 120.457336,25.67435 120.457336,24.84085 L120.457336,23.17485 Z M120.457336,21.93185 L120.457336,19.15435 C120.457336,18.79085 120.747189,18.50185 121.11126,18.50185 C121.473826,18.50185 121.76418,18.79085 121.76418,19.15435 L121.76418,24.84085 C121.76418,26.44685 120.722617,27.25485 119.25831,27.25485 C117.624003,27.25485 116.665183,26.32635 116.665183,24.35785 C116.665183,22.39035 117.599431,21.44835 119.124416,21.44835 C119.705124,21.44835 120.214622,21.68835 120.457336,21.93185 Z" id="Fill-47" fill="#254B87"></path>
            <path d="M126.185083,25.0821 L126.185083,24.7446 L124.769419,24.7446 C124.235348,24.7446 123.945496,24.9981 123.945496,25.4326 C123.945496,25.8916 124.271956,26.1701 124.949448,26.1701 C125.590835,26.1701 126.185083,25.7591 126.185083,25.0821 M123.871779,23.0656 C123.750923,23.1511 123.653637,23.1866 123.508711,23.1866 C123.194286,23.1866 122.94054,22.9326 122.94054,22.6191 C122.94054,22.4866 122.988681,22.3426 123.097501,22.2196 C123.436499,21.8476 124.041779,21.4481 125.083844,21.4481 C126.583755,21.4481 127.480392,22.1846 127.480392,23.4656 L127.480392,26.5566 C127.480392,26.9061 127.189537,27.1966 126.839006,27.1966 C126.487973,27.1966 126.196115,26.9061 126.196115,26.5566 C125.870156,27.0746 125.339094,27.2551 124.610451,27.2551 C123.423962,27.2551 122.636145,26.5211 122.636145,25.4326 C122.636145,24.3081 123.543814,23.7306 124.599419,23.7306 L126.185083,23.7306 L126.185083,23.5126 C126.185083,22.9686 125.78641,22.6061 125.083844,22.6061 C124.550274,22.6061 124.173667,22.8506 123.871779,23.0656" id="Fill-49" fill="#254B87"></path>
            <path d="M132.166074,23.17485 C132.166074,23.17485 131.695189,22.55885 130.969555,22.55885 C130.144628,22.55885 129.674245,23.16235 129.674245,24.35785 C129.674245,25.54235 130.132593,26.14535 130.969555,26.14535 C131.671619,26.14535 132.166074,25.67435 132.166074,24.84085 L132.166074,23.17485 Z M132.166074,21.93185 L132.166074,19.15435 C132.166074,18.79085 132.457932,18.50185 132.821501,18.50185 C133.184569,18.50185 133.475425,18.79085 133.475425,19.15435 L133.475425,24.84085 C133.475425,26.44685 132.433861,27.25485 130.969555,27.25485 C129.333743,27.25485 128.377431,26.32635 128.377431,24.35785 C128.377431,22.39035 129.311177,21.44835 130.835159,21.44835 C131.415867,21.44835 131.925366,21.68835 132.166074,21.93185 Z" id="Fill-51" fill="#254B87"></path>
            <path d="M143.63631,23.17485 C143.63631,23.17485 143.164422,22.55885 142.43628,22.55885 C141.613861,22.55885 141.140469,23.16235 141.140469,24.35785 C141.140469,25.54235 141.600823,26.14535 142.43628,26.14535 C143.139348,26.14535 143.63631,25.67435 143.63631,24.84085 L143.63631,23.17485 Z M143.63631,21.93185 L143.63631,19.15435 C143.63631,18.79085 143.927165,18.50185 144.290735,18.50185 C144.653301,18.50185 144.942652,18.79085 144.942652,19.15435 L144.942652,24.84085 C144.942652,26.44685 143.90159,27.25485 142.43628,27.25485 C140.801973,27.25485 139.844658,26.32635 139.844658,24.35785 C139.844658,22.39035 140.778404,21.44835 142.303389,21.44835 C142.884599,21.44835 143.394097,21.68835 143.63631,21.93185 Z" id="Fill-53" fill="#254B87"></path>
            <path d="M147.196581,23.73055 L149.59313,23.73055 C149.59313,23.13855 149.254634,22.55855 148.468823,22.55855 C147.764752,22.55855 147.25726,22.95705 147.196581,23.73055 M148.468823,21.44855 C150.513838,21.44855 150.889442,23.01805 150.889442,23.85155 C150.889442,24.29905 150.889442,24.81655 150.151773,24.81655 L147.159472,24.81655 C147.159472,25.68655 147.776286,26.08505 148.576139,26.08505 C149.109206,26.08505 149.485313,25.90505 149.774664,25.71105 C149.907555,25.62455 150.004841,25.57855 150.161802,25.57855 C150.477732,25.57855 150.731478,25.83105 150.731478,26.14555 C150.731478,26.33755 150.634192,26.49605 150.525372,26.59205 C150.320268,26.78655 149.678882,27.25505 148.576139,27.25505 C146.892186,27.25505 145.851124,26.35005 145.851124,24.33305 C145.851124,22.48655 146.819973,21.44855 148.468823,21.44855" id="Fill-55" fill="#254B87"></path>
            <path d="M8.17539528,16.30525 C8.44217994,16.10325 8.8889941,16.16975 9.36689971,16.66425 C9.84380236,17.15475 11.9409705,19.78225 14.2823569,21.21825 C17.9646873,23.48025 22.3897021,22.83475 24.7381091,19.57825 C27.3186991,16.00025 26.3804395,9.55925 26.2089351,8.81675 C26.0384336,8.07675 26.2395251,7.97075 26.5058083,7.85525 C26.7720914,7.74025 27.0604395,7.84375 27.28159,8.39775 C27.5017375,8.95125 31.910705,17.96425 30.2904395,28.81325 C28.9174012,38.01525 22.9292891,46.95275 22.9292891,46.95275 C22.9292891,46.95275 24.9121209,39.51575 25.4622389,34.52975 C25.5314425,33.90025 25.2531239,33.76575 25.0440088,33.72225 C24.8348938,33.67825 24.4808525,33.71675 24.3620029,34.37875 C23.5400855,41.79975 21.4238614,47.27575 21.4238614,47.27575 C21.4238614,47.27575 20.5452773,37.54025 18.1998791,31.39725 C15.2497021,23.67475 8.58810914,17.82125 8.28220944,17.55575 C7.59920059,16.87125 7.93819764,16.48425 8.17539528,16.30525" id="Fill-57" fill="#D5282C"></path>
            <path d="M23.6768378,16.7237 C23.6768378,19.2237 21.6463658,21.2482 19.1425015,21.2482 C16.6356283,21.2482 14.6056578,19.2237 14.6056578,16.7237 C14.6056578,14.2292 16.6356283,12.2027 19.1425015,12.2027 C21.6463658,12.2027 23.6768378,14.2292 23.6768378,16.7237" id="Fill-59" fill="#D5282C"></path>
            <path d="M24.2275074,46.7452 C24.2275074,46.7452 29.6038201,41.4382 32.0460029,31.8547 C34.4861799,22.2702 33.7329646,18.6507 33.7329646,18.6507 C33.7329646,18.6507 33.6717847,17.9547 34.1943215,17.9157 C34.7103392,17.8762 34.785059,18.2587 34.8131416,18.5967 C34.8392183,18.9092 34.5343215,27.2137 38.5396018,28.7557 C41.3719322,30.1522 44.7473599,28.7937 46.5401327,25.5417 C46.9001917,25.0677 46.9789233,24.8202 47.3981563,24.9907 C47.8163864,25.1607 47.665944,25.5987 47.5501032,25.9597 C47.434764,26.3212 46.1570059,31.3067 39.4838791,38.2422 C33.1898673,44.7852 25.1798083,47.7137 25.1798083,47.7137 C25.1798083,47.7137 29.9388053,44.6592 34.354292,38.6932 C34.685767,38.2457 34.6637021,37.9232 34.3653245,37.6737 C34.1371534,37.4807 33.6843215,37.5232 33.3999853,37.9082 C28.9834956,43.9117 24.2275074,46.7452 24.2275074,46.7452" id="Fill-61" fill="#254B87"></path>
            <path d="M44.5176342,24.19 C44.5176342,26.1605 42.9174277,27.7545 40.9426195,27.7545 C38.9668083,27.7545 37.3655988,26.1605 37.3655988,24.19 C37.3655988,22.2225 38.9668083,20.626 40.9426195,20.626 C42.9174277,20.626 44.5176342,22.2225 44.5176342,24.19" id="Fill-63" fill="#254B87"></path>
            <path d="M20.3508555,47.23295 C20.3508555,47.23295 19.5705605,40.60195 16.5973156,34.59445 C13.1842773,27.69095 10.4547493,24.66245 10.3494395,24.52195 C10.2446313,24.38295 9.96631268,24.13345 9.63233038,24.35495 C9.30336283,24.57345 9.5039528,24.96945 9.60775811,25.14245 C9.7120649,25.31845 11.6352212,27.28595 10.9336578,30.16645 C10.7200295,31.04095 8.78734513,33.41695 5.970059,32.93195 C3.15176991,32.44895 1.42168142,31.56545 1.07817109,31.43645 C0.734159292,31.30645 0.335486726,31.30645 0.20660767,31.57695 C0.0752212389,31.84895 0.0752212389,32.20645 0.592743363,32.42095 C1.10675516,32.63395 4.4480826,34.06195 8.3460472,36.79995 C16.2257227,42.33245 19.0575516,47.69595 19.0575516,47.69595 C19.0575516,47.69595 18.5726254,44.24295 14.9499705,38.92495 C14.639056,38.46745 14.6089676,38.13645 14.8787611,37.93145 C15.1505605,37.72395 15.5642773,37.78295 15.8611504,38.23095 C18.4597935,42.15845 20.3508555,47.23295 20.3508555,47.23295" id="Fill-65" fill="#3AAA49"></path>
            <path d="M9.73789086,28.7266 C9.73789086,30.4416 8.33977876,31.8331 6.61871681,31.8331 C4.89765487,31.8331 3.5030531,30.4416 3.5030531,28.7266 C3.5030531,27.0096 4.89765487,25.6181 6.61871681,25.6181 C8.33977876,25.6181 9.73789086,27.0096 9.73789086,28.7266" id="Fill-67" fill="#3AAA49"></path>
            <polygon id="Fill-69" fill="#254B87" points="27.30541 6.981 24.7273274 6.153 22.5795103 7.798 22.5749971 5.0965 20.3389204 3.566 22.9170029 2.7295 23.6842596 0.1375 25.2794513 2.3205 27.9884189 2.248 26.3997463 4.4375"></polygon>
        </g>
    </g>
</svg>